<svg width="17" height="15" viewBox="0 0 17 15" fill="none" xmlns="http://www.w3.org/2000/svg">
<path d="M4.37346 2.66995C4.23095 2.89551 4.04082 3.08715 3.81639 3.23143C3.59197 3.37571 3.33869 3.46914 3.07433 3.50516C2.7735 3.54791 2.47504 3.59383 2.17658 3.6437C1.34296 3.78225 0.75 4.51612 0.75 5.36083V12.0314C0.75 12.5038 0.937667 12.9569 1.27172 13.2909C1.60577 13.625 2.05883 13.8127 2.53125 13.8127H14.4063C14.8787 13.8127 15.3317 13.625 15.6658 13.2909C15.9998 12.9569 16.1875 12.5038 16.1875 12.0314V5.36083C16.1875 4.51612 15.5938 3.78225 14.7609 3.6437C14.4622 3.59394 14.163 3.54775 13.8632 3.50516C13.5989 3.46903 13.3458 3.37555 13.1215 3.23127C12.8973 3.087 12.7073 2.89541 12.5648 2.66995L11.9141 1.62812C11.7679 1.3907 11.5667 1.19199 11.3275 1.04881C11.0883 0.905629 10.8181 0.822198 10.5398 0.805579C9.16008 0.731474 7.77742 0.731474 6.39775 0.805579C6.11944 0.822198 5.84924 0.905629 5.61001 1.04881C5.37078 1.19199 5.16957 1.3907 5.02342 1.62812L4.37346 2.66995Z" stroke="white" stroke-width="1.5" stroke-linecap="round" stroke-linejoin="round"/>
</svg>
