<svg width="16" height="20" viewBox="0 0 16 20" fill="none" xmlns="http://www.w3.org/2000/svg">
<path d="M13.25 0C13.6111 0 13.9687 0.0711308 14.3024 0.209331C14.636 0.347532 14.9392 0.550095 15.1945 0.805456C15.4499 1.06082 15.6525 1.36398 15.7907 1.69762C15.9289 2.03127 16 2.38886 16 2.75V17.25C16 17.6111 15.9289 17.9687 15.7907 18.3024C15.6525 18.636 15.4499 18.9392 15.1945 19.1945C14.9392 19.4499 14.636 19.6525 14.3024 19.7907C13.9687 19.9289 13.6111 20 13.25 20H2.75C2.38878 20 2.0311 19.9288 1.69739 19.7906C1.36368 19.6523 1.06048 19.4497 0.805103 19.1942C0.549729 18.9387 0.347186 18.6354 0.209044 18.3017C0.0709025 17.9679 -0.000131171 17.6102 1.81835e-07 17.249V2.75C1.81835e-07 1.49 0.846 0.43 2 0.103V1.75C1.696 1.978 1.5 2.34 1.5 2.75V17.248C1.5 17.938 2.06 18.498 2.75 18.498H13.25C13.94 18.498 14.5 17.938 14.5 17.248V2.75C14.5 2.06 13.94 1.5 13.25 1.5H11V0H13.25ZM10 0V8.139C10 8.886 9.2 9.166 8.71 8.903L8.628 8.851L6.502 7.566L4.424 8.817C3.924 9.177 3.094 8.957 3.007 8.259L3 8.14V0H10ZM8.5 1.5H4.5V7.023L6.073 6.074C6.19825 6.00716 6.33727 5.9702 6.47918 5.96604C6.6211 5.96188 6.76204 5.99061 6.891 6.05L8.501 7.024L8.5 1.5Z" fill="#888888"/>
</svg>
