<svg width="36" height="36" viewBox="0 0 36 36" fill="none" xmlns="http://www.w3.org/2000/svg">
<path fill-rule="evenodd" clip-rule="evenodd" d="M27.9998 2.67002C27.7922 2.45878 27.5448 2.29079 27.2719 2.17579C26.999 2.06078 26.706 2.00104 26.4098 2.00002H9.10981C8.80885 1.99873 8.51064 2.0573 8.23252 2.17232C7.95441 2.28735 7.70194 2.45653 7.48981 2.67002C6.61981 3.53002 5.12981 5.00002 4.25981 5.91002C3.83655 6.33895 3.59941 6.91742 3.59981 7.52002V31.71C3.5958 32.011 3.65196 32.3098 3.765 32.5888C3.87804 32.8678 4.04567 33.1214 4.25806 33.3347C4.47044 33.548 4.7233 33.7167 5.0018 33.831C5.28029 33.9452 5.5788 34.0027 5.87981 34H25.8798L24.9998 33.58C23.9842 33.0801 23.1307 32.3031 22.5379 31.3387C21.9451 30.3743 21.6372 29.2619 21.6498 28.13V22.69C21.6518 22.4903 21.724 22.2977 21.8539 22.1459C21.9837 21.9941 22.1628 21.8929 22.3598 21.86C24.188 21.5445 25.9074 20.7742 27.3598 19.62C27.5045 19.5129 27.6798 19.455 27.8598 19.455C28.0399 19.455 28.2151 19.5129 28.3598 19.62L28.6598 19.84V4.29002C28.6635 3.98961 28.607 3.69149 28.4937 3.41325C28.3803 3.13502 28.2124 2.88231 27.9998 2.67002ZM12.7198 8.00002H19.5598C19.7706 8.02285 19.9656 8.12277 20.1072 8.28058C20.2489 8.43839 20.3272 8.64297 20.3272 8.85502C20.3272 9.06707 20.2489 9.27165 20.1072 9.42946C19.9656 9.58727 19.7706 9.68719 19.5598 9.71002H12.7198C12.509 9.68719 12.314 9.58727 12.1724 9.42946C12.0308 9.27165 11.9524 9.06707 11.9524 8.85502C11.9524 8.64297 12.0308 8.43839 12.1724 8.28058C12.314 8.12277 12.509 8.02285 12.7198 8.00002ZM17.2798 26.86H9.27981C9.06899 26.8372 8.87404 26.7373 8.7324 26.5795C8.59075 26.4216 8.51241 26.2171 8.51241 26.005C8.51241 25.793 8.59075 25.5884 8.7324 25.4306C8.87404 25.2728 9.06899 25.1729 9.27981 25.15H17.2798C17.4906 25.1729 17.6856 25.2728 17.8272 25.4306C17.9689 25.5884 18.0472 25.793 18.0472 26.005C18.0472 26.2171 17.9689 26.4216 17.8272 26.5795C17.6856 26.7373 17.4906 26.8372 17.2798 26.86ZM17.2798 21.15H9.27981C9.06899 21.1272 8.87404 21.0273 8.7324 20.8695C8.59075 20.7117 8.51241 20.5071 8.51241 20.295C8.51241 20.083 8.59075 19.8784 8.7324 19.7206C8.87404 19.5628 9.06899 19.4629 9.27981 19.44H17.2798C17.4906 19.4629 17.6856 19.5628 17.8272 19.7206C17.9689 19.8784 18.0472 20.083 18.0472 20.295C18.0472 20.5071 17.9689 20.7117 17.8272 20.8695C17.6856 21.0273 17.4906 21.1272 17.2798 21.15ZM22.9998 15.43H9.29981C9.08899 15.4072 8.89404 15.3073 8.7524 15.1495C8.61075 14.9917 8.53241 14.7871 8.53241 14.575C8.53241 14.363 8.61075 14.1584 8.7524 14.0006C8.89404 13.8428 9.08899 13.7429 9.29981 13.72H22.9998C23.2106 13.7429 23.4056 13.8428 23.5472 14.0006C23.6889 14.1584 23.7672 14.363 23.7672 14.575C23.7672 14.7871 23.6889 14.9917 23.5472 15.1495C23.4056 15.3073 23.2106 15.4072 22.9998 15.43Z" fill="#43D685"/>
<path fill-rule="evenodd" clip-rule="evenodd" d="M32.3999 23.4102V28.1302C32.3999 28.9347 32.1752 29.7233 31.7512 30.4071C31.3272 31.0908 30.7206 31.6426 29.9999 32.0002L27.8599 33.0002L25.7199 32.0002C24.9994 31.6345 24.3956 31.0745 23.9767 30.3835C23.5579 29.6925 23.3408 28.8981 23.3499 28.0902V23.4102C25.0018 23.1176 26.559 22.4316 27.8899 21.4102C28.1499 21.5902 28.4099 21.7602 28.6899 21.9402C29.8184 22.6683 31.0789 23.1677 32.3999 23.4102Z" fill="url(#paint0_linear_168_1378)"/>
<defs>
<linearGradient id="paint0_linear_168_1378" x1="23.3496" y1="27.2052" x2="32.3999" y2="27.2052" gradientUnits="userSpaceOnUse">
<stop stop-color="#6523E7"/>
<stop offset="0.5" stop-color="#023CE3" stop-opacity="0.8"/>
<stop offset="1" stop-color="#6523E7"/>
</linearGradient>
</defs>
</svg>
