<svg width="19" height="19" viewBox="0 0 19 19" fill="none" xmlns="http://www.w3.org/2000/svg">
<path d="M14.2357 14.824C13.6825 14.0916 12.9668 13.4976 12.145 13.0889C11.3232 12.6802 10.4177 12.4679 9.49991 12.4687C8.58209 12.4679 7.67661 12.6802 6.85481 13.0889C6.033 13.4976 5.31733 14.0916 4.76416 14.824M14.2357 14.824C15.3151 13.8638 16.0764 12.5982 16.42 11.195C16.7636 9.79183 16.6726 8.31731 16.159 6.96704C15.6454 5.61677 14.7334 4.45453 13.5441 3.63446C12.3547 2.81438 10.9442 2.37523 9.49951 2.37523C8.05485 2.37523 6.64431 2.81438 5.45497 3.63446C4.26563 4.45453 3.35367 5.61677 2.84004 6.96704C2.32641 8.31731 2.23538 9.79183 2.57902 11.195C2.92265 12.5982 3.68472 13.8638 4.76416 14.824M14.2357 14.824C12.9326 15.9863 11.246 16.6275 9.49991 16.625C7.75352 16.6277 6.06743 15.9864 4.76416 14.824M11.8749 7.71875C11.8749 8.34863 11.6247 8.95273 11.1793 9.39812C10.7339 9.84352 10.1298 10.0937 9.49991 10.0937C8.87002 10.0937 8.26593 9.84352 7.82053 9.39812C7.37513 8.95273 7.12491 8.34863 7.12491 7.71875C7.12491 7.08886 7.37513 6.48477 7.82053 6.03937C8.26593 5.59397 8.87002 5.34375 9.49991 5.34375C10.1298 5.34375 10.7339 5.59397 11.1793 6.03937C11.6247 6.48477 11.8749 7.08886 11.8749 7.71875Z" stroke="#888888" stroke-width="1.5" stroke-linecap="round" stroke-linejoin="round"/>
</svg>
