<svg width="19" height="19" viewBox="0 0 19 19" fill="none" xmlns="http://www.w3.org/2000/svg">
<path d="M17.2188 5.34375V13.6563C17.2188 14.1287 17.0311 14.5817 16.697 14.9158C16.363 15.2498 15.9099 15.4375 15.4375 15.4375H3.5625C3.09008 15.4375 2.63702 15.2498 2.30297 14.9158C1.96892 14.5817 1.78125 14.1287 1.78125 13.6563V5.34375M17.2188 5.34375C17.2188 4.87133 17.0311 4.41827 16.697 4.08422C16.363 3.75017 15.9099 3.5625 15.4375 3.5625H3.5625C3.09008 3.5625 2.63702 3.75017 2.30297 4.08422C1.96892 4.41827 1.78125 4.87133 1.78125 5.34375M17.2188 5.34375V5.53613C17.2188 5.84024 17.141 6.1393 16.9927 6.40482C16.8444 6.67033 16.6306 6.89347 16.3717 7.05296L10.4342 10.7065C10.1533 10.8795 9.82988 10.9711 9.5 10.9711C9.17012 10.9711 8.84671 10.8795 8.56583 10.7065L2.62833 7.05375C2.3694 6.89426 2.1556 6.67113 2.00733 6.40561C1.85905 6.14009 1.78122 5.84103 1.78125 5.53692V5.34375" stroke="#888888" stroke-width="1.5" stroke-linecap="round" stroke-linejoin="round"/>
</svg>
