<svg width="16" height="20" viewBox="0 0 16 20" fill="none" xmlns="http://www.w3.org/2000/svg">
<path d="M13.25 0.75C13.5126 0.75 13.773 0.801834 14.0156 0.902344C14.2582 1.00285 14.4784 1.15029 14.6641 1.33594C14.8497 1.52159 14.9971 1.74182 15.0977 1.98438C15.1982 2.22703 15.25 2.48736 15.25 2.75V17.25C15.25 17.5126 15.1982 17.773 15.0977 18.0156C14.9971 18.2582 14.8497 18.4784 14.6641 18.6641C14.4784 18.8497 14.2582 18.9971 14.0156 19.0977C13.773 19.1982 13.5126 19.25 13.25 19.25H2.75C2.4873 19.25 2.22707 19.1982 1.98438 19.0977C1.74182 18.9971 1.52159 18.8497 1.33594 18.6641C1.15021 18.4783 1.00281 18.2574 0.902344 18.0146C0.801897 17.7719 0.749904 17.5117 0.75 17.249V2.75C0.75 2.21957 0.960865 1.71101 1.33594 1.33594C1.60071 1.07117 1.93243 0.890322 2.29102 0.805664V8.16699C2.29102 8.84931 2.67293 9.35593 3.17969 9.59766C3.65164 9.82256 4.22863 9.82002 4.70508 9.57324L4.72852 9.56055L4.84082 9.49219L6.54102 8.51855L8.30957 9.53516V9.5332C8.75474 9.81412 9.30477 9.83235 9.75098 9.66797C10.2118 9.4981 10.6353 9.10703 10.7568 8.5127L10.7803 8.36621L10.7812 8.3418L10.7891 8.21387L10.791 8.19043V0.75H13.25ZM7.79102 0.75V5.7793L7.29395 5.49414L7.25879 5.47363L7.2207 5.45703L7.04785 5.39258C6.87113 5.33735 6.68592 5.31125 6.5 5.31641C6.25242 5.32331 6.00909 5.38526 5.78809 5.49707L5.7666 5.50781L5.74609 5.51953L5.64746 5.57812L5.29102 5.78125V0.75H7.79102Z" stroke="#888888" stroke-width="1.5"/>
</svg>
