<svg width="61" height="61" viewBox="0 0 61 61" fill="none" xmlns="http://www.w3.org/2000/svg">
<g filter="url(#filter0_dddd_110_2342)">
<rect x="8" y="8" width="45" height="45" rx="22.5" fill="#2563EB" shape-rendering="crispEdges"/>
<path d="M33.5 29C33.5 29.7956 33.1839 30.5587 32.6213 31.1213C32.0587 31.6839 31.2956 32 30.5 32C29.7044 32 28.9413 31.6839 28.3787 31.1213C27.8161 30.5587 27.5 29.7956 27.5 29C27.5 28.2044 27.8161 27.4413 28.3787 26.8787C28.9413 26.3161 29.7044 26 30.5 26C31.2956 26 32.0587 26.3161 32.6213 26.8787C33.1839 27.4413 33.5 28.2044 33.5 29Z" stroke="white" stroke-width="1.5" stroke-linecap="round" stroke-linejoin="round"/>
<path d="M38 29C38 36.142 30.5 40.25 30.5 40.25C30.5 40.25 23 36.142 23 29C23 27.0109 23.7902 25.1032 25.1967 23.6967C26.6032 22.2902 28.5109 21.5 30.5 21.5C32.4891 21.5 34.3968 22.2902 35.8033 23.6967C37.2098 25.1032 38 27.0109 38 29Z" stroke="white" stroke-width="1.5" stroke-linecap="round" stroke-linejoin="round"/>
</g>
<defs>
<filter id="filter0_dddd_110_2342" x="0" y="0" width="61" height="61" filterUnits="userSpaceOnUse" color-interpolation-filters="sRGB">
<feFlood flood-opacity="0" result="BackgroundImageFix"/>
<feColorMatrix in="SourceAlpha" type="matrix" values="0 0 0 0 0 0 0 0 0 0 0 0 0 0 0 0 0 0 127 0" result="hardAlpha"/>
<feOffset dx="-4"/>
<feGaussianBlur stdDeviation="2"/>
<feComposite in2="hardAlpha" operator="out"/>
<feColorMatrix type="matrix" values="0 0 0 0 0.552941 0 0 0 0 0.690196 0 0 0 0 1 0 0 0 0.25 0"/>
<feBlend mode="normal" in2="BackgroundImageFix" result="effect1_dropShadow_110_2342"/>
<feColorMatrix in="SourceAlpha" type="matrix" values="0 0 0 0 0 0 0 0 0 0 0 0 0 0 0 0 0 0 127 0" result="hardAlpha"/>
<feOffset dx="4"/>
<feGaussianBlur stdDeviation="2"/>
<feComposite in2="hardAlpha" operator="out"/>
<feColorMatrix type="matrix" values="0 0 0 0 0.552941 0 0 0 0 0.690196 0 0 0 0 1 0 0 0 0.25 0"/>
<feBlend mode="normal" in2="effect1_dropShadow_110_2342" result="effect2_dropShadow_110_2342"/>
<feColorMatrix in="SourceAlpha" type="matrix" values="0 0 0 0 0 0 0 0 0 0 0 0 0 0 0 0 0 0 127 0" result="hardAlpha"/>
<feOffset dy="-4"/>
<feGaussianBlur stdDeviation="2"/>
<feComposite in2="hardAlpha" operator="out"/>
<feColorMatrix type="matrix" values="0 0 0 0 0.552941 0 0 0 0 0.690196 0 0 0 0 1 0 0 0 0.25 0"/>
<feBlend mode="normal" in2="effect2_dropShadow_110_2342" result="effect3_dropShadow_110_2342"/>
<feColorMatrix in="SourceAlpha" type="matrix" values="0 0 0 0 0 0 0 0 0 0 0 0 0 0 0 0 0 0 127 0" result="hardAlpha"/>
<feOffset dy="4"/>
<feGaussianBlur stdDeviation="2"/>
<feComposite in2="hardAlpha" operator="out"/>
<feColorMatrix type="matrix" values="0 0 0 0 0.552885 0 0 0 0 0.692038 0 0 0 0 1 0 0 0 0.25 0"/>
<feBlend mode="normal" in2="effect3_dropShadow_110_2342" result="effect4_dropShadow_110_2342"/>
<feBlend mode="normal" in="SourceGraphic" in2="effect4_dropShadow_110_2342" result="shape"/>
</filter>
</defs>
</svg>
