<svg width="26" height="26" viewBox="0 0 26 26" fill="none" xmlns="http://www.w3.org/2000/svg">
<path d="M8.71557 2.84977L13.9587 9.09825C14.2961 9.50035 14.2437 10.0999 13.8415 10.4373L7.59303 15.6804C7.19093 16.0178 6.59139 15.9654 6.25396 15.5633L1.01086 9.31478C0.673459 8.91268 0.725878 8.31314 1.12802 7.97571L7.3765 2.73261C7.77863 2.39518 8.37814 2.44763 8.71557 2.84977Z" fill="#81B840"/>
<path d="M18.4104 -5.28524L23.6535 0.963237C23.9909 1.36534 23.9385 1.96488 23.5363 2.30231L17.2879 7.54541C16.8858 7.88281 16.2862 7.83039 15.9488 7.42825L10.7057 1.17977C10.3683 0.777672 10.4207 0.178134 10.8228 -0.1593L17.0713 -5.4024C17.4735 -5.73983 18.073 -5.68738 18.4104 -5.28524Z" fill="#FF6067"/>
<path d="M9.25179 6.95808L10.0058 7.85662C10.1491 8.0274 10.1271 8.27867 9.95629 8.42198L8.87645 9.32807L9.78254 10.4079C9.92585 10.5787 9.90386 10.83 9.73308 10.9733L8.83451 11.7273C8.66373 11.8706 8.41245 11.8486 8.26915 11.6778L7.36306 10.598L6.2833 11.504C6.11252 11.6473 5.86127 11.6253 5.71794 11.4545L4.96398 10.556C4.82068 10.3852 4.84263 10.134 5.01344 9.99063L6.09328 9.08454L5.18719 8.0047C5.04389 7.83392 5.06587 7.58264 5.23665 7.43934L6.13522 6.68535C6.306 6.54205 6.55728 6.56403 6.70058 6.73481L7.60667 7.81465L8.6865 6.90856C8.85721 6.76532 9.10849 6.7873 9.25179 6.95808Z" fill="#F4FEFF"/>
<path d="M16.4536 12.0717L21.6967 18.3202C22.0341 18.7223 21.9817 19.3218 21.5795 19.6592L15.3311 24.9023C14.929 25.2397 14.3294 25.1873 13.992 24.7852L8.7489 18.5367C8.4115 18.1346 8.46392 17.5351 8.86605 17.1976L15.1145 11.9545C15.5167 11.6171 16.1162 11.6696 16.4536 12.0717Z" fill="#7868D3"/>
<path d="M26.1487 3.93668L31.3918 10.1852C31.7292 10.5873 31.6768 11.1868 31.2746 11.5242L25.0261 16.7673C24.624 17.1047 24.0245 17.0523 23.6871 16.6502L18.444 10.4017C18.1066 9.99959 18.159 9.40006 18.5611 9.06262L24.8096 3.81953C25.2118 3.48213 25.8113 3.53458 26.1487 3.93668Z" fill="#FCDC49"/>
<path d="M18.062 18.0881L17.9598 19.2566C17.9403 19.4787 17.7471 19.6409 17.525 19.6214L16.1208 19.4986L15.9979 20.9028C15.9785 21.1249 15.7852 21.287 15.5632 21.2676L14.3947 21.1654C14.1726 21.1459 14.0105 20.9527 14.0299 20.7306L14.1528 19.3264L12.7485 19.2035C12.5265 19.1841 12.3644 18.9909 12.3838 18.7688L12.486 17.6003C12.5054 17.3782 12.6986 17.2161 12.9207 17.2356L14.325 17.3584L14.4478 15.9542C14.4673 15.7321 14.6605 15.57 14.8825 15.5894L16.051 15.6916C16.2731 15.7111 16.4352 15.9043 16.4158 16.1264L16.2929 17.5306L17.6972 17.6535C17.9193 17.6728 18.0814 17.8661 18.062 18.0881Z" fill="#F4FEFF"/>
<path d="M19.6511 0.287172L15.9781 3.36918C15.8084 3.51163 15.5552 3.48949 15.4128 3.31972L14.6588 2.42118C14.5164 2.25141 14.5385 1.99828 14.7083 1.85582L18.3813 -1.22622C18.5511 -1.36867 18.8042 -1.34653 18.9467 -1.17675L19.7006 -0.278218C19.8431 -0.108414 19.8209 0.144714 19.6511 0.287172Z" fill="#F4FEFF"/>
<path d="M27.2199 11.4864L22.4434 11.0685C22.2226 11.0492 22.0593 10.8545 22.0786 10.6337L22.1808 9.46524C22.2001 9.24447 22.3948 9.08116 22.6156 9.10045L27.3921 9.51834C27.6129 9.53766 27.7762 9.73228 27.7569 9.95308L27.6547 11.1216C27.6353 11.3423 27.4407 11.5057 27.2199 11.4864Z" fill="#F4FEFF"/>
<path d="M26.1476 7.57572C26.322 7.04772 26.0353 6.4783 25.5073 6.30388C24.9793 6.12946 24.4099 6.4161 24.2355 6.94411C24.0611 7.47211 24.3477 8.04154 24.8757 8.21595C25.4037 8.39037 25.9731 8.10373 26.1476 7.57572Z" fill="#F4FEFF"/>
<path d="M25.6195 13.6304C25.7939 13.1024 25.5073 12.533 24.9793 12.3586C24.4512 12.1842 23.8818 12.4708 23.7074 12.9988C23.533 13.5268 23.8196 14.0962 24.3476 14.2706C24.8756 14.4451 25.4451 14.1584 25.6195 13.6304Z" fill="#F4FEFF"/>
<path d="M7.77559 15.8978L14.0241 10.6547C14.5455 10.2172 14.6138 9.43714 14.1762 8.91568L8.93306 2.66713C8.4955 2.14567 7.71544 2.07749 7.19406 2.51498L0.945574 7.75808C0.424185 8.19558 0.355873 8.97563 0.793431 9.49709L6.03659 15.7456C6.47415 16.2671 7.2542 16.3353 7.77559 15.8978ZM1.22839 9.13212C0.992134 8.85056 1.02899 8.4293 1.31055 8.19304L7.55903 2.94994C7.84059 2.71369 8.26185 2.75054 8.4981 3.0321L13.7413 9.28065C13.9775 9.56221 13.9407 9.98347 13.6591 10.2197L7.41062 15.4628C7.12906 15.6991 6.7078 15.6622 6.47155 15.3807L1.22839 9.13212Z" fill="black"/>
<path d="M18.628 -5.46797C18.1904 -5.98943 17.4104 -6.05761 16.889 -5.62012L10.6404 -0.376927C10.119 0.0605701 10.0507 0.840617 10.4883 1.36208L15.7314 7.61063C16.169 8.13209 16.949 8.20027 17.4704 7.76277L23.719 2.51961C24.2404 2.08212 24.3087 1.30207 23.8711 0.78061L18.628 -5.46797ZM23.4362 1.14558C23.6724 1.42714 23.6356 1.8484 23.354 2.08466L17.1054 7.32782C16.8239 7.56407 16.4026 7.52722 16.1664 7.24566L10.9232 0.997105C10.687 0.715548 10.7238 0.294285 11.0054 0.0580304L17.2539 -5.18513C17.5355 -5.42138 17.9567 -5.38453 18.193 -5.10297L23.4362 1.14558Z" fill="black"/>
<path d="M6.46577 11.7215L7.32811 10.9979L8.0517 11.8602C8.29452 12.1496 8.72753 12.1876 9.01699 11.9447L9.91552 11.1907C10.205 10.9478 10.2428 10.5147 10 10.2254L9.27646 9.36304L10.1388 8.63945C10.4283 8.39657 10.466 7.96351 10.2232 7.67416L9.46929 6.77562C9.22647 6.48624 8.79345 6.44829 8.504 6.69117L7.64166 7.41476L6.91807 6.55242C6.67525 6.26303 6.24213 6.22517 5.95271 6.46803L5.05417 7.22199C4.76472 7.46487 4.72693 7.89793 4.96972 8.18728L5.69331 9.04962L4.83097 9.77321C4.54151 10.0161 4.50372 10.4491 4.74652 10.7385L5.50048 11.637C5.74327 11.9264 6.17631 11.9644 6.46577 11.7215ZM5.18151 10.3735C5.13918 10.323 5.14559 10.2505 5.19597 10.2082L6.27581 9.30211C6.39596 9.20129 6.41162 9.02226 6.3108 8.90211L5.40471 7.82228C5.36238 7.77183 5.3688 7.69925 5.41918 7.65698L6.31771 6.90302C6.36816 6.86069 6.44078 6.86694 6.48311 6.91739L7.3892 7.99723C7.49002 8.11738 7.66905 8.13304 7.7892 8.03222L8.86904 7.12613C8.91942 7.08386 8.992 7.09014 9.03433 7.1406L9.78829 8.03913C9.83063 8.08958 9.82421 8.16215 9.77383 8.20443L8.69399 9.11051C8.57385 9.21133 8.55818 9.39036 8.659 9.51051L9.56509 10.5903C9.60742 10.6408 9.60101 10.7134 9.55052 10.7557L8.65199 11.5097C8.60161 11.552 8.52902 11.5457 8.48669 11.4952L7.5806 10.4154C7.47978 10.2952 7.30075 10.2796 7.1806 10.3804L6.10077 11.2865C6.05039 11.3288 5.9778 11.3225 5.93547 11.272L5.18151 10.3735Z" fill="black"/>
<path d="M15.5137 25.1197L21.7621 19.8766C22.2835 19.4391 22.3518 18.6591 21.9143 18.1376L16.6711 11.8891C16.2335 11.3676 15.4535 11.2994 14.9321 11.7369L8.68361 16.98C8.16222 17.4175 8.09391 18.1976 8.53147 18.719L13.7746 24.9676C14.2122 25.4891 14.9923 25.5572 15.5137 25.1197ZM8.96643 18.354C8.73017 18.0725 8.76703 17.6512 9.04858 17.415L15.2971 12.1719C15.5786 11.9356 15.9999 11.9725 16.2361 12.254L21.4793 18.5026C21.7156 18.7841 21.6787 19.2054 21.3971 19.4417L15.1487 24.6847C14.8671 24.921 14.4458 24.8841 14.2096 24.6026L8.96643 18.354Z" fill="black"/>
<path d="M25.2085 16.9847L31.457 11.7416C31.9784 11.3041 32.0467 10.524 31.6092 10.0026L26.366 3.75398C25.9284 3.23252 25.1484 3.16434 24.627 3.60184L18.3784 8.845C17.857 9.28249 17.7887 10.0625 18.2263 10.584L23.4694 16.8326C23.907 17.3541 24.6871 17.4222 25.2085 16.9847ZM18.6613 10.219C18.425 9.93747 18.4619 9.51621 18.7434 9.27995L24.992 4.0368C25.2735 3.80054 25.6948 3.8374 25.931 4.11895L31.1742 10.3675C31.4104 10.6491 31.3736 11.0703 31.092 11.3066L24.8435 16.5497C24.5619 16.786 24.1407 16.7491 23.9044 16.4676L18.6613 10.219Z" fill="black"/>
<path d="M14.3699 21.448L15.5386 21.5504C15.9156 21.5832 16.248 21.3032 16.2809 20.9275L16.3789 19.806L17.5004 19.9041C17.8767 19.9371 18.2096 19.6577 18.2427 19.2813L18.3448 18.1127C18.3781 17.7353 18.1016 17.4038 17.722 17.3705L16.6006 17.2723L16.6986 16.1508C16.7318 15.7731 16.4554 15.442 16.0759 15.4086L14.9074 15.3064C14.5414 15.2742 14.1968 15.5633 14.1651 15.9293L14.0669 17.0506L12.9455 16.9526C12.5795 16.9204 12.235 17.2095 12.2032 17.5755L12.1008 18.7441C12.068 19.1234 12.3458 19.4533 12.7237 19.4862L13.8452 19.5843L13.747 20.7059C13.7142 21.0852 13.992 21.4151 14.3699 21.448ZM14.3127 20.7553L14.4356 19.3509C14.4493 19.1946 14.3338 19.057 14.1775 19.0433L12.7731 18.9205C12.707 18.9146 12.6608 18.8594 12.6665 18.7934L12.7689 17.6248C12.7745 17.5591 12.8299 17.5123 12.896 17.5181L14.3001 17.6409C14.4564 17.6546 14.594 17.5391 14.6077 17.3828L14.7308 15.9786C14.7378 15.8968 14.776 15.8647 14.8579 15.8719L16.0262 15.9742C16.0922 15.9799 16.1386 16.0349 16.133 16.1012L16.0102 17.5055C15.9965 17.6618 16.112 17.7994 16.2683 17.8131L17.6725 17.9361C17.7367 17.9416 17.7852 17.9956 17.7792 18.0629C17.7793 18.0631 17.7793 18.0631 17.7793 18.0631L17.6771 19.2315C17.6715 19.297 17.6157 19.3441 17.55 19.3385L16.1456 19.2156C15.9956 19.2025 15.8512 19.3237 15.8381 19.4737L15.7153 20.878C15.7097 20.9435 15.6538 20.9904 15.5881 20.9847L14.4195 20.8823C14.3533 20.8765 14.3071 20.8213 14.3127 20.7553Z" fill="black"/>
<path d="M18.1988 -1.44381L14.5259 1.63813C14.2365 1.88102 14.1986 2.31414 14.4414 2.60349L15.1954 3.50202C15.4382 3.7914 15.8713 3.82926 16.1607 3.58641L19.8337 0.504435C20.1231 0.261552 20.161 -0.171567 19.9182 -0.460916L19.1642 -1.35945C18.9214 -1.6488 18.4883 -1.6867 18.1988 -1.44381ZM19.4832 -0.095914C19.5248 -0.0462888 19.5183 0.0278314 19.4686 0.0694719L15.7957 3.15142C15.7461 3.19306 15.672 3.18667 15.6303 3.13705L14.8764 2.23851C14.8347 2.18889 14.8413 2.11477 14.8909 2.07313L18.5639 -1.00885C18.6135 -1.05049 18.6876 -1.0441 18.7293 -0.994479L19.4832 -0.0959444L19.4832 -0.095914Z" fill="black"/>
<path d="M27.1952 11.7692C27.5722 11.802 27.9046 11.522 27.9375 11.1463L28.0396 9.97762C28.0728 9.60039 27.794 9.26827 27.4168 9.23543L22.6405 8.81749C22.2755 8.78549 21.9296 9.07577 21.8981 9.44041L21.7958 10.6089C21.7626 10.9861 22.0414 11.3183 22.4186 11.3511L27.1952 11.7692ZM22.3614 10.6584L22.4638 9.48983C22.4693 9.42547 22.5262 9.37751 22.5909 9.38317L27.3674 9.80106C27.4319 9.80671 27.4797 9.86359 27.474 9.92817L27.3719 11.0968C27.3665 11.161 27.3097 11.209 27.2447 11.2036L22.4681 10.7855C22.4034 10.7798 22.3558 10.723 22.3614 10.6584Z" fill="black"/>
<path d="M26.468 7.37954C26.5302 6.6702 26.0047 6.04389 25.2952 5.98181C24.5885 5.91998 23.9595 6.4425 23.8973 7.15474C23.8354 7.86287 24.3594 8.49022 25.0701 8.55253C25.7794 8.61459 26.4062 8.08926 26.468 7.37954ZM24.463 7.20413C24.4973 6.80826 24.8478 6.51263 25.2457 6.5474C25.6419 6.58223 25.937 6.93232 25.9024 7.33006C25.8687 7.71363 25.5032 8.02057 25.1197 7.98685C24.7228 7.95195 24.4283 7.60119 24.463 7.20413Z" fill="black"/>
<path d="M25.9385 13.432L25.9385 13.432C26.0003 12.7231 25.4739 12.0961 24.7654 12.0342C24.0566 11.9722 23.4295 12.4984 23.3675 13.2072C23.3056 13.9152 23.8297 14.5429 24.5405 14.6051C25.2492 14.6671 25.8764 14.1408 25.9385 13.432ZM23.9331 13.2566C23.9678 12.8601 24.319 12.5651 24.7159 12.5999C25.1128 12.6346 25.4073 12.9856 25.3728 13.3826C25.3381 13.7795 24.9869 14.0742 24.59 14.0394C24.1947 14.0047 23.8985 13.6551 23.9331 13.2566Z" fill="black"/>
</svg>
