<svg width="16" height="16" viewBox="0 0 16 16" fill="none" xmlns="http://www.w3.org/2000/svg">
<path d="M3.71875 0.75V2.53125M12.0313 0.75V2.53125M0.75 13.2188V4.3125C0.75 3.84008 0.937667 3.38702 1.27172 3.05297C1.60577 2.71892 2.05883 2.53125 2.53125 2.53125H13.2188C13.6912 2.53125 14.1442 2.71892 14.4783 3.05297C14.8123 3.38702 15 3.84008 15 4.3125V13.2188M0.75 13.2188C0.75 13.6912 0.937667 14.1442 1.27172 14.4783C1.60577 14.8123 2.05883 15 2.53125 15H13.2188C13.6912 15 14.1442 14.8123 14.4783 14.4783C14.8123 14.1442 15 13.6912 15 13.2188M0.75 13.2188V7.28125C0.75 6.80883 0.937667 6.35577 1.27172 6.02172C1.60577 5.68767 2.05883 5.5 2.53125 5.5H13.2188C13.6912 5.5 14.1442 5.68767 14.4783 6.02172C14.8123 6.35577 15 6.80883 15 7.28125V13.2188" stroke="#2563EB" stroke-width="1.5" stroke-linecap="round" stroke-linejoin="round"/>
</svg>
