<svg width="18" height="21" viewBox="0 0 18 21" fill="none" xmlns="http://www.w3.org/2000/svg">
<path d="M15.75 17.3663C16.3778 17.3654 16.9869 17.1526 17.4788 16.7625C17.2142 17.4902 16.7934 18.151 16.2459 18.6984C15.6985 19.2459 15.0377 19.6667 14.31 19.9313C14.7017 19.4403 14.9146 18.8306 14.9138 18.2025V17.3663H15.75ZM17.7975 1.24125V14.5688C17.7968 15.1116 17.5809 15.632 17.197 16.0158C16.8132 16.3996 16.2928 16.6156 15.75 16.6163H14.5388C14.4394 16.6165 14.3442 16.6561 14.2739 16.7264C14.2036 16.7967 14.164 16.8919 14.1638 16.9913V18.2025C14.1631 18.7453 13.9471 19.2657 13.5633 19.6495C13.1795 20.0334 12.6591 20.2493 12.1163 20.25H7.63875C8.10404 19.7659 8.46522 19.1916 8.7 18.5625H12.9225C13.022 18.5625 13.1173 18.523 13.1877 18.4527C13.258 18.3823 13.2975 18.287 13.2975 18.1875C13.2975 18.088 13.258 17.9927 13.1877 17.9223C13.1173 17.852 13.022 17.8125 12.9225 17.8125H8.91C9.0105 17.2998 9.02697 16.7742 8.95875 16.2563H12.9225C13.022 16.2563 13.1173 16.2167 13.1877 16.1464C13.258 16.0761 13.2975 15.9807 13.2975 15.8813C13.2975 15.7818 13.258 15.6864 13.1877 15.6161C13.1173 15.5458 13.022 15.5063 12.9225 15.5063H8.80125C8.63867 14.9441 8.37429 14.4167 8.02125 13.95H16.5563C16.6557 13.95 16.7511 13.9105 16.8214 13.8402C16.8917 13.7698 16.9313 13.6745 16.9313 13.575C16.9313 13.4755 16.8917 13.3802 16.8214 13.3098C16.7511 13.2395 16.6557 13.2 16.5563 13.2H7.32375C6.43816 12.4256 5.30144 11.9991 4.125 12C3.81549 12.0001 3.50666 12.029 3.2025 12.0863V1.24125C3.20238 1.07821 3.2344 0.916751 3.29674 0.7661C3.35907 0.61545 3.4505 0.478567 3.56578 0.363283C3.68107 0.247998 3.81795 0.156572 3.9686 0.0942367C4.11925 0.0319012 4.28071 -0.000121453 4.44375 3.46144e-07H16.5563C16.7193 -0.000120959 16.8808 0.0319021 17.0314 0.0942378C17.1821 0.156573 17.3189 0.247999 17.4342 0.363284C17.5495 0.478568 17.6409 0.615451 17.7033 0.766101C17.7656 0.916751 17.7976 1.07821 17.7975 1.24125ZM4.06875 2.0475C4.06858 2.09679 4.07816 2.14564 4.09694 2.19121C4.11573 2.23679 4.14334 2.27819 4.1782 2.31305C4.21306 2.34791 4.25447 2.37552 4.30004 2.39431C4.34562 2.41309 4.39446 2.42267 4.44375 2.4225H8.0775C8.17696 2.4225 8.27234 2.38299 8.34267 2.31267C8.41299 2.24234 8.4525 2.14696 8.4525 2.0475C8.4525 1.94804 8.41299 1.85266 8.34267 1.78234C8.27234 1.71201 8.17696 1.6725 8.0775 1.6725H4.44375C4.39446 1.67233 4.34562 1.68191 4.30004 1.7007C4.25447 1.71948 4.21306 1.7471 4.17821 1.78195C4.14335 1.81681 4.11573 1.85822 4.09695 1.90379C4.07816 1.94937 4.06858 1.99821 4.06875 2.0475ZM4.06875 3.94875C4.06858 3.99804 4.07816 4.04688 4.09695 4.09246C4.11573 4.13803 4.14335 4.17944 4.17821 4.2143C4.21306 4.24915 4.25447 4.27677 4.30004 4.29555C4.34562 4.31434 4.39446 4.32392 4.44375 4.32375H8.0775C8.17696 4.32375 8.27234 4.28424 8.34267 4.21392C8.41299 4.14359 8.4525 4.04821 8.4525 3.94875C8.4525 3.84929 8.41299 3.75391 8.34267 3.68359C8.27234 3.61326 8.17696 3.57375 8.0775 3.57375H4.44375C4.39446 3.57358 4.34562 3.58316 4.30004 3.60195C4.25447 3.62073 4.21306 3.64835 4.17821 3.6832C4.14335 3.71806 4.11573 3.75947 4.09695 3.80504C4.07816 3.85062 4.06858 3.89946 4.06875 3.94875ZM16.9313 11.2688C16.9314 11.2195 16.9218 11.1706 16.9031 11.125C16.8843 11.0795 16.8567 11.0381 16.8218 11.0032C16.7869 10.9683 16.7455 10.9407 16.7 10.9219C16.6544 10.9032 16.6055 10.8936 16.5563 10.8938H4.44375C4.3443 10.8938 4.24891 10.9333 4.17859 11.0036C4.10826 11.0739 4.06875 11.1693 4.06875 11.2688C4.06875 11.3682 4.10826 11.4636 4.17859 11.5339C4.24891 11.6042 4.3443 11.6438 4.44375 11.6438H16.5563C16.6056 11.6442 16.6546 11.6349 16.7003 11.6162C16.746 11.5975 16.7876 11.5699 16.8225 11.535C16.8574 11.5001 16.885 11.4585 16.9037 11.4128C16.9224 11.3671 16.9317 11.3181 16.9313 11.2688ZM16.9313 8.96625C16.9317 8.91687 16.9224 8.86789 16.9037 8.82217C16.885 8.77645 16.8574 8.73492 16.8225 8.7C16.7876 8.66508 16.746 8.63748 16.7003 8.6188C16.6546 8.60013 16.6056 8.59076 16.5563 8.59125H4.44375C4.3443 8.59125 4.24891 8.63076 4.17859 8.70109C4.10826 8.77141 4.06875 8.86679 4.06875 8.96625C4.06875 9.06571 4.10826 9.16109 4.17859 9.23142C4.24891 9.30174 4.3443 9.34125 4.44375 9.34125H16.5563C16.6055 9.34142 16.6544 9.33184 16.7 9.31306C16.7455 9.29427 16.7869 9.26665 16.8218 9.2318C16.8567 9.19694 16.8843 9.15553 16.9031 9.10996C16.9218 9.06439 16.9314 9.01554 16.9313 8.96625ZM16.9313 6.66C16.9314 6.61071 16.9218 6.56186 16.9031 6.51629C16.8843 6.47071 16.8567 6.42931 16.8218 6.39445C16.7869 6.35959 16.7455 6.33198 16.7 6.31319C16.6544 6.29441 16.6055 6.28483 16.5563 6.285H4.44375C4.3443 6.285 4.24891 6.32451 4.17859 6.39484C4.10826 6.46516 4.06875 6.56054 4.06875 6.66C4.06875 6.75946 4.10826 6.85484 4.17859 6.92517C4.24891 6.99549 4.3443 7.035 4.44375 7.035H16.5563C16.6055 7.03517 16.6544 7.02559 16.7 7.0068C16.7455 6.98802 16.7869 6.9604 16.8218 6.92555C16.8567 6.89069 16.8843 6.84928 16.9031 6.80371C16.9218 6.75813 16.9314 6.70929 16.9313 6.66ZM8.25 16.875C8.25 17.6908 8.00807 18.4884 7.55481 19.1667C7.10155 19.8451 6.45732 20.3738 5.70357 20.686C4.94983 20.9982 4.12043 21.0799 3.32025 20.9207C2.52008 20.7616 1.78508 20.3687 1.20819 19.7918C0.631294 19.2149 0.238427 18.4799 0.0792626 17.6797C-0.0799015 16.8796 0.00178731 16.0502 0.313999 15.2964C0.62621 14.5427 1.15492 13.8985 1.83327 13.4452C2.51163 12.9919 3.30915 12.75 4.125 12.75C5.21882 12.7507 6.26765 13.1855 7.0411 13.9589C7.81454 14.7324 8.24935 15.7812 8.25 16.875ZM5.51625 17.7375L4.5 16.7213V14.5088C4.5 14.4093 4.46049 14.3139 4.39017 14.2436C4.31984 14.1733 4.22446 14.1338 4.125 14.1338C4.02555 14.1338 3.93016 14.1733 3.85984 14.2436C3.78951 14.3139 3.75 14.4093 3.75 14.5088V16.875C3.75073 16.9744 3.78967 17.0698 3.85875 17.1413L4.9875 18.2663C5.02214 18.3018 5.06354 18.3301 5.10926 18.3494C5.15498 18.3687 5.20411 18.3787 5.25375 18.3788C5.32751 18.3775 5.39928 18.3547 5.46019 18.3131C5.5211 18.2715 5.56846 18.2129 5.5964 18.1447C5.62435 18.0764 5.63165 18.0014 5.6174 17.9291C5.60315 17.8567 5.56798 17.7901 5.51625 17.7375Z" fill="url(#paint0_linear_251_1593)"/>
<defs>
<linearGradient id="paint0_linear_251_1593" x1="1.85569e-06" y1="10.5" x2="17.7975" y2="10.5" gradientUnits="userSpaceOnUse">
<stop stop-color="#FF81FF"/>
<stop offset="1" stop-color="#A93AFF"/>
</linearGradient>
</defs>
</svg>
