<svg width="26" height="26" viewBox="0 0 26 26" fill="none" xmlns="http://www.w3.org/2000/svg">
<path d="M27.7941 12.0726L15.2784 22.5746C14.6859 23.0717 13.8026 22.9944 13.3055 22.4019L1.39333 8.20559C0.896167 7.61309 0.973444 6.72981 1.56594 6.23265L14.0816 -4.26925C14.6741 -4.76641 15.5574 -4.68913 16.0546 -4.09664L27.9667 10.0997C28.4639 10.6922 28.3866 11.5755 27.7941 12.0726Z" fill="#2F94F6"/>
<path d="M14.0816 -4.2693L13.3665 -3.66919C13.9589 -4.16632 14.8422 -4.08907 15.3394 -3.49658L27.2515 10.6998C27.7487 11.2922 27.6714 12.1756 27.0789 12.6727L27.7941 12.0726C28.3866 11.5755 28.4639 10.6921 27.9667 10.0997L16.0546 -4.09669C15.5574 -4.68915 14.6741 -4.76646 14.0816 -4.2693Z" fill="#006EF2"/>
<path d="M2.46217 5.48062L1.56594 6.23265C0.97348 6.72978 0.896167 7.61309 1.39333 8.20559L13.3055 22.4019C13.8026 22.9944 14.686 23.0717 15.2784 22.5746L16.1746 21.8226L2.46217 5.48062Z" fill="#FF5477"/>
<path d="M25.1837 8.96172L12.668 19.4636C12.0755 19.9608 11.9982 20.8441 12.4954 21.4366L13.3055 22.4021C13.8027 22.9945 14.686 23.0718 15.2785 22.5747L27.7942 12.0728C28.3866 11.5756 28.4639 10.6923 27.9668 10.0998L25.3563 6.98879C25.8535 7.58128 25.7762 8.46456 25.1837 8.96172Z" fill="white"/>
<path d="M25.4899 8.60037L27.2516 10.6999C27.7487 11.2923 27.6715 12.1757 27.079 12.6728L27.7942 12.0727C28.3866 11.5756 28.4639 10.6922 27.9668 10.0998L25.3563 6.98874C25.7482 7.45579 25.7829 8.10345 25.4899 8.60037Z" fill="#C2D3DD"/>
<path d="M20.5872 20.5498L18.9462 21.3174L17.9053 22.8002L15.2217 19.6021L17.9036 17.3516L20.5872 20.5498Z" fill="#FF5477"/>
<path d="M17.1885 17.9517L19.7121 20.9591L20.5873 20.5497L17.9037 17.3516L17.1885 17.9517Z" fill="#FF0F43"/>
<path d="M6.64038 8.28149L17.1491 -0.536352L21.7651 4.96479L11.2564 13.7826L6.64038 8.28149Z" fill="white"/>
<path d="M16.4341 0.0637207L17.1493 -0.536388L21.7652 4.96472L21.0501 5.56483L16.4341 0.0637207Z" fill="#C2D3DD"/>
<path d="M13.8566 -4.53751L10.2807 -1.53696L10.7308 -1.00058L14.3067 -4.00112C14.7504 -4.37337 15.4142 -4.31529 15.7864 -3.87166L25.0881 7.21365C25.4604 7.65728 25.4023 8.32111 24.9587 8.69335L20.4888 12.444L20.9389 12.9804L25.4087 9.22974C25.7104 8.97662 25.905 8.64265 25.9876 8.28568L27.6986 10.3247C28.0708 10.7683 28.0128 11.4321 27.5691 11.8044L19.4339 18.6306L18.3969 17.3947L24.5653 12.2188L24.1152 11.6824L14.7285 19.5588L16.2156 21.3311L15.0534 22.3063C14.6098 22.6785 13.946 22.6205 13.5737 22.1768L12.7636 21.2113C12.3914 20.7677 12.4494 20.1039 12.8931 19.7316L20.3667 13.4605L19.9166 12.9241L13.6074 18.2182L2.95547 5.52372L10.1945 -0.550524L9.74439 -1.08691L1.341 5.96437C0.601575 6.58482 0.504787 7.69111 1.12524 8.43054L6.03113 14.2771L6.56751 13.8271L1.66163 7.98045C1.28938 7.53683 1.34746 6.873 1.79108 6.50075L2.41908 5.9738L13.071 18.6683L12.443 19.1953C12.1413 19.4484 11.9467 19.7823 11.8641 20.1393L7.01942 14.3657L6.48303 14.8158L13.0374 22.6269C13.6578 23.3663 14.7641 23.4631 15.5035 22.8427L16.6657 21.8675L17.93 23.3743L19.1791 21.5949L21.1484 20.6738L19.884 19.167L28.0192 12.3408C28.7586 11.7203 28.8554 10.614 28.235 9.87461L16.3228 -4.32174C15.7024 -5.06117 14.5961 -5.15796 13.8566 -4.53751ZM20.0261 20.4257L18.7133 21.0398L17.8806 22.226L15.7149 19.6451L17.8605 17.8448L20.0261 20.4257Z" fill="black"/>
<path d="M24.6516 11.2324L25.188 10.7823L25.6381 11.3187L25.1017 11.7688L24.6516 11.2324Z" fill="black"/>
<path d="M11.2133 14.2758L22.2584 5.00788L17.1923 -1.02965L6.14722 8.23828L11.2133 14.2758ZM7.13368 8.32459L17.106 -0.0431787L21.2719 4.92158L11.2996 13.2893L7.13368 8.32459Z" fill="black"/>
<path d="M14.8273 7.22874L11.1966 6.04816L10.6492 6.50725L13.589 10.0108L14.1254 9.5607L12.0207 7.05241L15.6514 8.23303L16.1987 7.77379L13.2777 4.29268L12.7413 4.74276L14.8273 7.22874Z" fill="black"/>
<path d="M11.3107 11.8802L12.8201 10.6137L12.37 10.0773L11.397 10.8938L10.6112 9.95734L11.4927 9.21771L11.0426 8.68132L10.1612 9.42096L9.37538 8.4845L10.3484 7.66805L9.89831 7.13166L8.38892 8.39819L11.3107 11.8802Z" fill="black"/>
<path d="M17.3468 4.30711L18.3076 3.5009C19.3732 5.26821 16.8998 6.38626 15.8673 5.09154C15.0482 4.1409 15.6707 2.60146 16.9187 2.48765L16.846 1.79124C15.0479 1.95506 14.1509 4.17204 15.3309 5.54166C17.2327 7.6922 20.7006 5.2206 18.6368 2.76762L18.4118 2.49943L16.8967 3.77073L17.3468 4.30711Z" fill="black"/>
</svg>
