<svg width="27" height="27" viewBox="0 0 27 27" fill="none" xmlns="http://www.w3.org/2000/svg">
<g clip-path="url(#clip0_24_919)">
<path d="M9.99177 9.83346L14.3306 15.0043L13.6676 22.5818C13.6186 23.1423 13.7942 23.6993 14.1558 24.1303C14.5175 24.5613 15.0355 24.831 15.596 24.88C16.1565 24.9291 16.7135 24.7534 17.1445 24.3918L25.385 17.4772C25.816 17.1155 26.0857 16.5975 26.1347 16.037C26.1838 15.4765 26.0081 14.9195 25.6465 14.4885C25.2848 14.0575 24.7668 13.7879 24.2063 13.7388L16.6287 13.0759L12.2899 7.9051" fill="#C8CDED"/>
<path d="M25.5737 17.3189C25.0098 17.7915 24.3463 18.1304 23.6329 18.3103C22.9194 18.4902 22.1746 18.5063 21.454 18.3576C20.7335 18.2088 20.0559 17.8989 19.4721 17.4512C18.8882 17.0034 18.4133 16.4294 18.0827 15.7721L13.9607 19.2308L13.6675 22.5819C13.6185 23.1424 13.7941 23.6994 14.1557 24.1304C14.5174 24.5614 15.0354 24.8311 15.5959 24.8801C16.1564 24.9291 16.7134 24.7535 17.1444 24.3919L25.5737 17.3189Z" fill="#559B2D"/>
<path d="M17.7694 16.7692C17.6475 16.6239 17.5183 16.488 17.386 16.3566L13.9607 19.2309L13.6675 22.5819C13.6309 22.9999 13.7191 23.4193 13.9209 23.7872C14.1227 24.155 14.4291 24.4547 14.8012 24.6485C15.1734 24.8422 15.5946 24.9212 16.0117 24.8756C16.4288 24.8299 16.8229 24.6616 17.1443 24.3919L18.7881 23.0126C19.1957 21.9766 19.3162 20.8497 19.137 19.7509C18.9577 18.6521 18.4852 17.622 17.7694 16.7692Z" fill="#6BC13B"/>
<path d="M25.9137 4.30585L30.9756 10.3385C31.2953 10.7194 31.4505 11.2117 31.4072 11.7071C31.3638 12.2025 31.1255 12.6604 30.7445 12.98C30.3636 13.2997 29.8713 13.4549 29.3759 13.4115C28.8805 13.3682 28.4226 13.1298 28.103 12.7489L23.041 6.71631" fill="#E2E7F6"/>
<path d="M16.9984 8.84955L18.5319 10.6771C17.8186 11.6357 17.4821 12.8228 17.5863 14.0131C17.6906 15.2034 18.2284 16.314 19.0976 17.1339C19.9668 17.9538 21.1068 18.4259 22.3012 18.4606C23.4955 18.4953 24.661 18.0902 25.5763 17.3221C26.4917 16.5541 27.093 15.4766 27.2662 14.2944C27.4395 13.1122 27.1725 11.9075 26.516 10.9091C25.8595 9.91079 24.8592 9.18832 23.705 8.87893C22.5509 8.56954 21.3234 8.69478 20.2555 9.23087L18.722 7.40328" fill="#E2E7F6"/>
<path d="M27.6009 6.31684L30.9756 10.3386C31.2952 10.7195 31.4504 11.2118 31.4071 11.7072C31.3638 12.2026 31.1254 12.6605 30.7445 12.9801C30.3635 13.2998 29.8712 13.455 29.3758 13.4117C28.8804 13.3683 28.4226 13.13 28.1029 12.749L24.7283 8.72729L27.6009 6.31684Z" fill="#3B5892"/>
<path d="M24.7283 8.72729L28.1029 12.749C28.3516 13.045 28.6863 13.2562 29.0604 13.3534C29.3104 13.2251 29.5281 13.0419 29.6974 12.8177C29.8667 12.5934 29.9831 12.3338 30.0381 12.0582C30.093 11.7827 30.085 11.4982 30.0146 11.2262C29.9442 10.9542 29.8133 10.7016 29.6317 10.4872L26.7391 7.03998L24.7283 8.72729Z" fill="#4C6CB5"/>
<path d="M25.3515 9.6729C25.9416 10.1123 26.4246 10.6796 26.7643 11.3323C27.1039 11.9849 27.2915 12.706 27.3128 13.4414C27.3341 14.1768 27.1888 14.9075 26.8875 15.5788C26.5863 16.25 26.137 16.8444 25.5734 17.3173C25.0098 17.7902 24.3465 18.1295 23.6331 18.3095C22.9198 18.4896 22.1749 18.5059 21.4544 18.3572C20.7338 18.2085 20.0563 17.8986 19.4725 17.4508C18.8888 17.0029 18.414 16.4288 18.0837 15.7713L25.3515 9.6729Z" fill="#F4A93C"/>
<path d="M25.0717 10.8867C24.9084 10.6956 24.7308 10.5174 24.5402 10.3536L18.0827 15.7721C18.5849 16.771 19.4154 17.5669 20.4348 18.0261C21.4542 18.4853 22.6006 18.58 23.6815 18.2942C24.314 17.9479 24.8617 17.4656 25.2851 16.882C25.7086 16.2985 25.9972 15.6282 26.1302 14.9195C26.2632 14.2109 26.2372 13.4815 26.0542 12.7841C25.8711 12.0867 25.5356 11.4387 25.0717 10.8867Z" fill="#F6B940"/>
<path d="M11.3255 6.75605L9.02741 8.68441C8.71011 8.95066 8.66872 9.42373 8.93497 9.74104C9.20122 10.0583 9.67429 10.0997 9.9916 9.83348L12.2897 7.90512C12.607 7.63887 12.6484 7.1658 12.3822 6.84849C12.1159 6.53119 11.6429 6.4898 11.3255 6.75605Z" fill="#F2F2F2"/>
<path d="M18.2085 4.88517C18.0576 5.01451 17.8917 5.12529 17.7144 5.21512C17.5587 5.3005 17.3872 5.35313 17.2104 5.3698C17.0336 5.38647 16.8553 5.36682 16.6864 5.31205C15.3292 4.82518 15.4034 2.0573 16.1617 -0.299645C16.7941 -2.26514 17.8364 -3.84714 18.819 -4.32893C18.9747 -4.4143 19.1462 -4.46694 19.323 -4.48361C19.4997 -4.50028 19.678 -4.48062 19.8469 -4.42586C21.2042 -3.93899 21.13 -1.17111 20.3717 1.18584C19.8439 2.82217 19.0324 4.19386 18.2085 4.88517ZM18.798 -3.41991C18.1775 -2.89925 17.4196 -1.75951 16.8756 -0.0694872C16.0443 2.51476 16.3522 4.39563 16.9396 4.6062C17.014 4.62579 17.0917 4.63022 17.1679 4.61924C17.2441 4.60826 17.3174 4.58209 17.3833 4.54227C18.0456 4.21559 19.0046 2.98111 19.657 0.954818C20.4884 -1.62943 20.1805 -3.5103 19.5931 -3.72087C19.5186 -3.74045 19.441 -3.74489 19.3647 -3.73391C19.2885 -3.72293 19.2153 -3.69676 19.1494 -3.65694C19.0233 -3.59201 18.9054 -3.51245 18.798 -3.41991Z" fill="#78A0D4"/>
<path d="M22.6512 1.15709C21.8274 1.84841 20.3356 2.40943 18.6317 2.64419C16.1789 2.98165 13.4402 2.57408 13.1961 1.15316C13.1719 0.977352 13.1837 0.798436 13.231 0.62737C13.2783 0.456304 13.36 0.296686 13.4711 0.15829C14.1171 -0.723472 15.8556 -1.47637 17.9014 -1.75815C20.3542 -2.09561 23.0929 -1.68805 23.337 -0.267127C23.361 -0.0914035 23.349 0.0873798 23.3016 0.258291C23.2542 0.429202 23.1724 0.588649 23.0613 0.726884C22.9423 0.886161 22.8046 1.03059 22.6512 1.15709ZM18.5279 1.90205C20.635 1.61286 22.0186 0.882146 22.4557 0.285816C22.5063 0.22775 22.5449 0.16013 22.5689 0.0869457C22.593 0.0137603 22.6022 -0.063509 22.596 -0.140305C22.4903 -0.755103 20.6915 -1.38495 18.0022 -1.01495C15.8951 -0.72576 14.5106 0.00567945 14.0744 0.601286C14.0237 0.659353 13.9852 0.726972 13.9611 0.800157C13.937 0.873342 13.9278 0.950612 13.9341 1.02741C14.0397 1.64221 15.8386 2.27205 18.5279 1.90205Z" fill="#5E87CA"/>
<path d="M17.7579 6.25401L16.0343 7.70028C15.7169 7.96653 15.6756 8.4396 15.9418 8.75691C16.2081 9.07421 16.6811 9.1156 16.9984 8.84935L18.722 7.40308C19.0393 7.13683 19.0807 6.66376 18.8145 6.34645C18.5482 6.02915 18.0752 5.98776 17.7579 6.25401Z" fill="#C8CDED"/>
<path d="M17.1833 6.73624L16.6088 7.21833L11.3058 0.898463C11.2419 0.822275 11.1503 0.774603 11.0512 0.765935C10.9522 0.757267 10.8537 0.788313 10.7775 0.852242L7.61757 3.50374C7.54138 3.56767 7.49371 3.65925 7.48504 3.75832C7.47638 3.8574 7.50742 3.95587 7.57135 4.03205L10.4639 7.47925L9.88936 7.96134L6.99682 4.51414C6.80503 4.28558 6.71189 3.99019 6.7379 3.69296C6.7639 3.39572 6.90692 3.121 7.13548 2.92921L10.2954 0.277709C10.524 0.0859211 10.8194 -0.00721451 11.1166 0.01879C11.4138 0.0447944 11.6886 0.187809 11.8804 0.416373L17.1833 6.73624Z" fill="#93BEE5"/>
<path d="M17.738 0.396484L18.3126 -0.0856064L18.7947 0.488927L18.2201 0.971018L17.738 0.396484Z" fill="#F0AE42"/>
<path d="M16.9358 18.6926L17.5103 18.2105L17.9924 18.7851L17.4179 19.2672L16.9358 18.6926Z" fill="#7BDF45"/>
<path d="M15.6943 20.7134L16.2689 20.2313L16.751 20.8058L16.1764 21.2879L15.6943 20.7134Z" fill="#7BDF45"/>
<path d="M19.2439 19.6931L19.8184 19.211L20.3005 19.7856L19.726 20.2676L19.2439 19.6931Z" fill="#7BDF45"/>
<path d="M15.7966 22.5857L16.3712 22.1036L16.8533 22.6781L16.2787 23.1602L15.7966 22.5857Z" fill="#7BDF45"/>
<path d="M20.9114 15.8462L21.4859 15.3641L21.968 15.9386L21.3935 16.4207L20.9114 15.8462Z" fill="#FCE797"/>
<path d="M23.0247 16.031L23.5992 15.5489L24.0813 16.1234L23.5067 16.6055L23.0247 16.031Z" fill="#FCE797"/>
<path d="M22.9685 13.6306L23.543 13.1485L24.0251 13.7231L23.4506 14.2051L22.9685 13.6306Z" fill="#FCE797"/>
<path d="M24.8867 13L25.4613 12.5179L25.9433 13.0924L25.3688 13.5745L24.8867 13Z" fill="#FCE797"/>
<path d="M24.9494 3.15677L22.0767 5.56723C21.7594 5.83348 21.718 6.30654 21.9843 6.62385C22.2505 6.94116 22.7236 6.98254 23.0409 6.71629L25.9136 4.30584C26.2309 4.03959 26.2723 3.56652 26.006 3.24921C25.7398 2.93191 25.2667 2.89052 24.9494 3.15677Z" fill="#C8CDED"/>
<path d="M26.3132 8.86597L26.8878 8.38388L27.3699 8.95841L26.7953 9.4405L26.3132 8.86597Z" fill="#E2E7F6"/>
<path d="M25.6355 5.72446L25.0519 5.02899L23.041 6.71631L24.1067 7.98631L25.543 6.78109C25.6954 6.65323 25.7907 6.47008 25.8081 6.27192C25.8254 6.07377 25.7633 5.87684 25.6355 5.72446Z" fill="#F2F2F2"/>
<path d="M20.553 10.762L18.1425 7.88929L16.9983 8.84937L18.5319 10.677C18.1155 11.2381 17.8244 11.8821 17.6781 12.5654C17.5319 13.2487 17.5339 13.9554 17.6841 14.6378L20.4132 12.3479C20.5266 12.253 20.6201 12.1366 20.6885 12.0056C20.7569 11.8745 20.7988 11.7312 20.8118 11.5839C20.8248 11.4366 20.8086 11.2882 20.7642 11.1472C20.7198 11.0061 20.648 10.8752 20.553 10.762Z" fill="#F2F2F2"/>
<path d="M16.4573 14.6884L11.3953 8.65584L9.99175 9.83359L14.3306 15.0044L14.0995 17.646L16.3648 15.7451C16.5172 15.6172 16.6126 15.4341 16.6299 15.2359C16.6472 15.0377 16.5851 14.8408 16.4573 14.6884Z" fill="#E2E7F6"/>
<path d="M21.6408 4.46438C20.5205 5.40446 18.1786 3.8386 16.5426 1.88892C14.9066 -0.0607581 13.7712 -2.63901 14.8916 -3.57908C16.0119 -4.51916 18.3538 -2.9533 19.9898 -1.00362C21.6258 0.946055 22.7612 3.5243 21.6408 4.46438ZM15.3737 -3.00455C14.8939 -2.60201 15.325 -0.728998 17.1171 1.40683C18.9093 3.54266 20.679 4.29239 21.1587 3.88985C21.6385 3.4873 21.2074 1.61429 19.4153 -0.521533C17.6231 -2.65736 15.8534 -3.4071 15.3737 -3.00455Z" fill="#93BEE5"/>
</g>
<defs>
<clipPath id="clip0_24_919">
<rect width="24" height="24" fill="white" transform="translate(0 8.427) rotate(-40)"/>
</clipPath>
</defs>
</svg>
