<svg width="33" height="33" viewBox="0 0 33 33" fill="none" xmlns="http://www.w3.org/2000/svg">
<path d="M23.375 1.71875H4.125C2.79606 1.71875 1.71875 2.79606 1.71875 4.125V28.875C1.71875 30.2039 2.79606 31.2812 4.125 31.2812H23.375C24.7039 31.2812 25.7812 30.2039 25.7812 28.875V4.125C25.7812 2.79606 24.7039 1.71875 23.375 1.71875Z" fill="#0DB561"/>
<path d="M24.75 31.2812C28.3571 31.2812 31.2812 28.3571 31.2812 24.75C31.2812 21.1429 28.3571 18.2188 24.75 18.2188C21.1429 18.2188 18.2188 21.1429 18.2188 24.75C18.2188 28.3571 21.1429 31.2812 24.75 31.2812Z" fill="#FFCB27"/>
<path d="M19.9375 9.28125H7.5625C7.289 9.28125 7.02669 9.1726 6.8333 8.9792C6.6399 8.78581 6.53125 8.5235 6.53125 8.25C6.53125 7.9765 6.6399 7.71419 6.8333 7.5208C7.02669 7.3274 7.289 7.21875 7.5625 7.21875H19.9375C20.211 7.21875 20.4733 7.3274 20.6667 7.5208C20.8601 7.71419 20.9688 7.9765 20.9688 8.25C20.9688 8.5235 20.8601 8.78581 20.6667 8.9792C20.4733 9.1726 20.211 9.28125 19.9375 9.28125Z" fill="white"/>
<path d="M19.9375 14.7812H7.5625C7.289 14.7812 7.02669 14.6726 6.8333 14.4792C6.6399 14.2858 6.53125 14.0235 6.53125 13.75C6.53125 13.4765 6.6399 13.2142 6.8333 13.0208C7.02669 12.8274 7.289 12.7188 7.5625 12.7188H19.9375C20.211 12.7188 20.4733 12.8274 20.6667 13.0208C20.8601 13.2142 20.9688 13.4765 20.9688 13.75C20.9688 14.0235 20.8601 14.2858 20.6667 14.4792C20.4733 14.6726 20.211 14.7812 19.9375 14.7812Z" fill="white"/>
<path d="M16.5 20.2812H7.5625C7.289 20.2812 7.02669 20.1726 6.8333 19.9792C6.6399 19.7858 6.53125 19.5235 6.53125 19.25C6.53125 18.9765 6.6399 18.7142 6.8333 18.5208C7.02669 18.3274 7.289 18.2188 7.5625 18.2188H16.5C16.7735 18.2187 17.0358 18.3274 17.2292 18.5208C17.4226 18.7142 17.5312 18.9765 17.5312 19.25C17.5312 19.5235 17.4226 19.7858 17.2292 19.9792C17.0358 20.1726 16.7735 20.2812 16.5 20.2812Z" fill="white"/>
<path d="M15.125 25.7812H7.5625C7.289 25.7812 7.02669 25.6726 6.8333 25.4792C6.6399 25.2858 6.53125 25.0235 6.53125 24.75C6.53125 24.4765 6.6399 24.2142 6.8333 24.0208C7.02669 23.8274 7.289 23.7188 7.5625 23.7188H15.125C15.3985 23.7188 15.6608 23.8274 15.8542 24.0208C16.0476 24.2142 16.1562 24.4765 16.1562 24.75C16.1562 25.0235 16.0476 25.2858 15.8542 25.4792C15.6608 25.6726 15.3985 25.7812 15.125 25.7812Z" fill="white"/>
<path d="M24.0626 27.1564C23.9272 27.1566 23.793 27.1301 23.6679 27.0782C23.5427 27.0264 23.4291 26.9503 23.3335 26.8543L21.9585 25.4793C21.8622 25.3837 21.7857 25.27 21.7334 25.1447C21.6811 25.0195 21.6541 24.8851 21.6538 24.7494C21.6536 24.6137 21.6801 24.4792 21.7319 24.3538C21.7838 24.2283 21.8598 24.1144 21.9558 24.0184C22.0518 23.9224 22.1658 23.8463 22.2912 23.7945C22.4167 23.7427 22.5511 23.7161 22.6868 23.7164C22.8226 23.7166 22.9569 23.7437 23.0821 23.7959C23.2074 23.8482 23.3211 23.9247 23.4167 24.021L24.0626 24.6669L26.0835 22.646C26.2771 22.4538 26.539 22.3462 26.8118 22.3467C27.0846 22.3472 27.3462 22.4558 27.5391 22.6487C27.732 22.8416 27.8406 23.1031 27.8411 23.3759C27.8416 23.6488 27.7339 23.9107 27.5417 24.1043L24.7917 26.8543C24.6961 26.9503 24.5825 27.0264 24.4574 27.0782C24.3322 27.1301 24.1981 27.1566 24.0626 27.1564Z" fill="url(#paint0_linear_168_1351)"/>
<path d="M24.75 31.2812H4.125C3.48706 31.2805 2.87547 31.0267 2.42438 30.5756C1.97329 30.1245 1.71953 29.5129 1.71875 28.875V4.125C1.71953 3.48706 1.97329 2.87547 2.42438 2.42438C2.87547 1.97329 3.48706 1.71953 4.125 1.71875H23.375C24.0129 1.71953 24.6245 1.97329 25.0756 2.42438C25.5267 2.87547 25.7805 3.48706 25.7812 4.125V16.5C25.7812 16.7735 25.6726 17.0358 25.4792 17.2292C25.2858 17.4226 25.0235 17.5312 24.75 17.5312C24.4765 17.5312 24.2142 17.4226 24.0208 17.2292C23.8274 17.0358 23.7188 16.7735 23.7188 16.5V4.125C23.7177 4.03416 23.6811 3.94735 23.6169 3.88312C23.5526 3.81888 23.4658 3.78232 23.375 3.78125H4.125C4.03416 3.78232 3.94735 3.81888 3.88312 3.88312C3.81888 3.94735 3.78232 4.03416 3.78125 4.125V28.875C3.78232 28.9658 3.81888 29.0526 3.88312 29.1169C3.94735 29.1811 4.03416 29.2177 4.125 29.2188H24.75C25.0235 29.2188 25.2858 29.3274 25.4792 29.5208C25.6726 29.7142 25.7812 29.9765 25.7812 30.25C25.7812 30.5235 25.6726 30.7858 25.4792 30.9792C25.2858 31.1726 25.0235 31.2812 24.75 31.2812Z" fill="#1A352B"/>
<path d="M24.7502 31.2814C24.4767 31.2814 24.2144 31.1727 24.021 30.9794C23.8276 30.786 23.7189 30.5237 23.7189 30.2501C23.7189 29.9766 23.8276 29.7143 24.021 29.5209C24.2144 29.3275 24.4767 29.2189 24.7502 29.2189C25.7336 29.2187 26.6894 28.8941 27.4695 28.2953C28.2496 27.6966 28.8104 26.8572 29.0649 25.9073C29.3194 24.9574 29.2534 23.9501 28.8771 23.0415C28.5008 22.133 27.8353 21.3739 26.9837 20.8821C26.1321 20.3903 25.1421 20.1932 24.1671 20.3213C23.1921 20.4495 22.2866 20.8957 21.591 21.5909C20.8954 22.286 20.4486 23.1912 20.3199 24.1662C20.1912 25.1411 20.3877 26.1313 20.879 26.9831C21.0161 27.22 21.0535 27.5016 20.983 27.766C20.9125 28.0304 20.7398 28.256 20.503 28.3931C20.2662 28.5302 19.9846 28.5676 19.7202 28.4971C19.4558 28.4266 19.2302 28.254 19.0931 28.0171C18.3736 26.772 18.0852 25.3243 18.2724 23.8985C18.4597 22.4727 19.1122 21.1486 20.1287 20.1314C21.1453 19.1143 22.469 18.461 23.8947 18.2729C25.3204 18.0848 26.7683 18.3724 28.0138 19.0912C29.2594 19.8099 30.233 20.9195 30.7836 22.2479C31.3342 23.5764 31.4311 25.0494 31.0592 26.4385C30.6873 27.8276 29.8674 29.0552 28.7267 29.9308C27.586 30.8064 26.1882 31.2812 24.7502 31.2814Z" fill="#1A352B"/>
<defs>
<linearGradient id="paint0_linear_168_1351" x1="21.6538" y1="24.7515" x2="27.8411" y2="24.7515" gradientUnits="userSpaceOnUse">
<stop stop-color="#6523E7"/>
<stop offset="0.5" stop-color="#023CE3" stop-opacity="0.8"/>
<stop offset="1" stop-color="#6523E7"/>
</linearGradient>
</defs>
</svg>
