<svg width="13" height="17" viewBox="0 0 13 17" fill="none" xmlns="http://www.w3.org/2000/svg">
<path d="M3.71875 5.5H2.53125C2.05883 5.5 1.60577 5.68767 1.27172 6.02172C0.937667 6.35577 0.75 6.80883 0.75 7.28125V14.4063C0.75 14.8787 0.937667 15.3317 1.27172 15.6658C1.60577 15.9998 2.05883 16.1875 2.53125 16.1875H9.65625C10.1287 16.1875 10.5817 15.9998 10.9158 15.6658C11.2498 15.3317 11.4375 14.8787 11.4375 14.4063V7.28125C11.4375 6.80883 11.2498 6.35577 10.9158 6.02172C10.5817 5.68767 10.1287 5.5 9.65625 5.5H8.46875M8.46875 3.125L6.09375 0.75M6.09375 0.75L3.71875 3.125M6.09375 0.75V10.8438" stroke="#2563EB" stroke-width="1.5" stroke-linecap="round" stroke-linejoin="round"/>
</svg>
